<svg width="48" height="49" viewBox="0 0 48 49" fill="none" xmlns="http://www.w3.org/2000/svg">
<g id="material-symbols:chevron-right-rounded">
<path id="Vector" d="M22.7999 24.5L30.5999 16.7C30.9666 16.3333 31.1499 15.8667 31.1499 15.3C31.1499 14.7333 30.9666 14.2667 30.5999 13.9C30.2332 13.5333 29.7666 13.35 29.1999 13.35C28.6332 13.35 28.1666 13.5333 27.7999 13.9L18.5999 23.1C18.3999 23.3 18.2579 23.5167 18.1739 23.75C18.0899 23.9833 18.0486 24.2333 18.0499 24.5C18.0512 24.7667 18.0926 25.0167 18.1739 25.25C18.2552 25.4833 18.3972 25.7 18.5999 25.9L27.7999 35.1C28.1666 35.4667 28.6332 35.65 29.1999 35.65C29.7666 35.65 30.2332 35.4667 30.5999 35.1C30.9666 34.7333 31.1499 34.2667 31.1499 33.7C31.1499 33.1333 30.9666 32.6667 30.5999 32.3L22.7999 24.5Z" fill="#999999"/>
</g>
</svg>
