<svg width="48" height="48" viewBox="0 0 48 48" fill="none" xmlns="http://www.w3.org/2000/svg">
<g id="material-symbols:chevron-right-rounded">
<rect x="0.5" y="0.5" width="47" height="47" rx="4.5" stroke="black" stroke-opacity="0.15"/>
<path id="Vector" d="M25.2001 24L17.4001 16.2C17.0334 15.8333 16.8501 15.3667 16.8501 14.8C16.8501 14.2333 17.0334 13.7667 17.4001 13.4C17.7668 13.0333 18.2334 12.85 18.8001 12.85C19.3668 12.85 19.8334 13.0333 20.2001 13.4L29.4001 22.6C29.6001 22.8 29.7421 23.0167 29.8261 23.25C29.9101 23.4833 29.9514 23.7333 29.9501 24C29.9488 24.2667 29.9074 24.5167 29.8261 24.75C29.7448 24.9833 29.6028 25.2 29.4001 25.4L20.2001 34.6C19.8334 34.9667 19.3668 35.15 18.8001 35.15C18.2334 35.15 17.7668 34.9667 17.4001 34.6C17.0334 34.2333 16.8501 33.7667 16.8501 33.2C16.8501 32.6333 17.0334 32.1667 17.4001 31.8L25.2001 24Z" fill="#999999"/>
</g>
</svg>
