<svg width="20" height="21" viewBox="0 0 20 21" fill="none" xmlns="http://www.w3.org/2000/svg">
<path d="M11.9998 2H5.33317C4.89114 2 4.46722 2.17559 4.15466 2.48816C3.8421 2.80072 3.6665 3.22464 3.6665 3.66667V17C3.6665 17.9167 4.4165 18.6667 5.33317 18.6667H15.3332C16.2498 18.6667 16.9998 17.9167 16.9998 17V7L11.9998 2ZM12.4165 16.0833L10.3332 14.9167L8.24984 16.1667L8.83317 13.8333L6.99984 12.25L9.4165 12.0833L10.3332 9.83333L11.2498 12L13.6665 12.1667L11.8332 13.75L12.4165 16.0833ZM11.1665 7.83333V3.25L15.7498 7.83333H11.1665Z" fill="white"/>
</svg>
