<svg width="32" height="32" viewBox="0 0 32 32" fill="none" xmlns="http://www.w3.org/2000/svg">
<path d="M6.66683 12.6667L10.0002 18.6667H3.3335L6.66683 12.6667Z" fill="#2A76C7"/>
<path d="M6.66683 26.6667C7.37407 26.6667 8.05235 26.3857 8.55245 25.8856C9.05254 25.3855 9.3335 24.7072 9.3335 24C9.3335 23.2928 9.05254 22.6145 8.55245 22.1144C8.05235 21.6143 7.37407 21.3333 6.66683 21.3333C5.95959 21.3333 5.28131 21.6143 4.78121 22.1144C4.28111 22.6145 4.00016 23.2928 4.00016 24C4.00016 24.7072 4.28111 25.3855 4.78121 25.8856C5.28131 26.3857 5.95959 26.6667 6.66683 26.6667Z" fill="#4488D0"/>
<path d="M12.0002 25.3333H28.0002V22.6667H12.0002V25.3333Z" fill="#3B88DA"/>
<path d="M12.0002 17.3333H28.0002V14.6667H12.0002V17.3333Z" fill="#4577AC"/>
<path fill-rule="evenodd" clip-rule="evenodd" d="M9.3335 5.33334H4.00016V10.6667H9.3335V5.33334Z" fill="#4394EB"/>
<path d="M12.0002 6.66667V9.33334H28.0002V6.66667H12.0002Z" fill="#82B1E3"/>
</svg>
