<svg width="19" height="20" viewBox="0 0 19 20" fill="none" xmlns="http://www.w3.org/2000/svg">
<path id="Vector" d="M14.7787 10.3189C15.0976 10.3189 15.4072 10.3564 15.7168 10.4033V5.62847L10.0883 0H2.58368C1.54241 0 0.70752 0.83489 0.70752 1.87616V16.8854C0.70752 17.9267 1.54241 18.7616 2.58368 18.7616H9.91007C9.43165 17.9361 9.15023 16.9792 9.15023 15.9473C9.15023 12.8423 11.6737 10.3189 14.7787 10.3189ZM9.15023 1.40712L14.3097 6.56655H9.15023V1.40712ZM19.0001 16.8854L16.6549 19.6997L14.3097 16.8854H15.7168V13.1331H17.5929V16.8854H19.0001ZM15.2477 15.0093H13.8406V18.7616H11.9645V15.0093H10.5573L12.9025 12.195L15.2477 15.0093Z" fill="white"/>
</svg>
