<svg width="32" height="32" viewBox="0 0 32 32" fill="none" xmlns="http://www.w3.org/2000/svg">
<path d="M6.66659 12.6667L9.99992 18.6667H3.33325L6.66659 12.6667Z" fill="#797979"/>
<path d="M6.66659 26.6667C7.37383 26.6667 8.05211 26.3857 8.5522 25.8856C9.0523 25.3855 9.33325 24.7073 9.33325 24C9.33325 23.2928 9.0523 22.6145 8.5522 22.1144C8.05211 21.6143 7.37383 21.3333 6.66659 21.3333C5.95934 21.3333 5.28106 21.6143 4.78097 22.1144C4.28087 22.6145 3.99992 23.2928 3.99992 24C3.99992 24.7073 4.28087 25.3855 4.78097 25.8856C5.28106 26.3857 5.95934 26.6667 6.66659 26.6667Z" fill="#8A8A8A"/>
<path d="M11.9999 25.3333H27.9999V22.6667H11.9999V25.3333Z" fill="#8B8B8B"/>
<path d="M11.9999 17.3333H27.9999V14.6667H11.9999V17.3333Z" fill="#787878"/>
<path fill-rule="evenodd" clip-rule="evenodd" d="M9.33325 5.33334H3.99992V10.6667H9.33325V5.33334Z" fill="#979797"/>
<path d="M11.9999 6.66668V9.33334H27.9999V6.66668H11.9999Z" fill="#B2B2B2"/>
</svg>
