<svg width="32" height="32" viewBox="0 0 32 32" fill="none" xmlns="http://www.w3.org/2000/svg">
<path d="M16.8001 16L11.6001 10.8C11.3556 10.5556 11.2334 10.2444 11.2334 9.86667C11.2334 9.48889 11.3556 9.17778 11.6001 8.93333C11.8445 8.68889 12.1556 8.56667 12.5334 8.56667C12.9112 8.56667 13.2223 8.68889 13.4667 8.93333L19.6001 15.0667C19.7334 15.2 19.8281 15.3444 19.8841 15.5C19.9401 15.6556 19.9676 15.8222 19.9667 16C19.9658 16.1778 19.9383 16.3444 19.8841 16.5C19.8298 16.6556 19.7352 16.8 19.6001 16.9333L13.4667 23.0667C13.2223 23.3111 12.9112 23.4333 12.5334 23.4333C12.1556 23.4333 11.8445 23.3111 11.6001 23.0667C11.3556 22.8222 11.2334 22.5111 11.2334 22.1333C11.2334 21.7556 11.3556 21.4444 11.6001 21.2L16.8001 16Z" fill="#999999"/>
</svg>
