<svg width="14" height="19" viewBox="0 0 14 19" fill="none" xmlns="http://www.w3.org/2000/svg">
<path id="Vector" d="M9.26383 3.44444C10.2024 3.44444 10.9861 2.65222 10.9861 1.72222C10.9861 1.26546 10.8046 0.827406 10.4816 0.504427C10.1586 0.181448 9.72059 0 9.26383 0C8.308 0 7.54161 0.757778 7.54161 1.72222C7.54161 2.65222 8.308 3.44444 9.26383 3.44444ZM6.15522 15.3967L7.01633 11.625L8.83327 13.3472V18.5139H10.5555V12.0556L8.73855 10.3333L9.26383 7.75C9.85387 8.42608 10.5818 8.96801 11.3987 9.33933C12.2156 9.71066 13.1026 9.90278 13.9999 9.90278V8.18056C12.3552 8.18056 10.9861 7.31944 10.2886 6.09667L9.42744 4.73611C9.083 4.20222 8.56633 3.875 7.97216 3.875C7.70522 3.875 7.54161 3.94389 7.27466 3.94389L2.8055 5.83833V9.90278H4.52772V6.95778L6.06911 6.355L4.69133 13.3472L0.471886 12.4861L0.127441 14.2083L6.15522 15.3967Z" fill="white"/>
</svg>
