<svg width="32" height="32" viewBox="0 0 32 32" fill="none" xmlns="http://www.w3.org/2000/svg">
<path fill-rule="evenodd" clip-rule="evenodd" d="M14.6667 24H5.33341V10.6667H26.6667V10.8933L27.2134 11.4533L29.3334 13.56V10.6667C29.3334 9.95943 29.0525 9.28116 28.5524 8.78106C28.0523 8.28096 27.374 8.00001 26.6667 8.00001H16.0001L13.3334 5.33334H5.33341C3.85341 5.33334 2.66675 6.52001 2.66675 8.00001V24C2.66675 24.7073 2.9477 25.3855 3.4478 25.8856C3.94789 26.3857 4.62617 26.6667 5.33341 26.6667H14.6667V24Z" fill="#979797"/>
<path fill-rule="evenodd" clip-rule="evenodd" d="M30.6667 18.6667V28C30.6667 29.48 29.4801 30.6667 28.0001 30.6667H20.0001C19.2928 30.6667 18.6146 30.3857 18.1145 29.8856C17.6144 29.3855 17.3334 28.7073 17.3334 28V16C17.3334 14.5333 18.5334 13.3333 20.0001 13.3333H25.3334L30.6667 18.6667ZM24.0001 20H28.0001V28H20.0001V16H24.0001V20Z" fill="#797979"/>
</svg>
