<svg width="32" height="32" viewBox="0 0 32 32" fill="none" xmlns="http://www.w3.org/2000/svg">
<path fill-rule="evenodd" clip-rule="evenodd" d="M14.6665 24H5.33317V10.6667H26.6665V10.8933L27.2132 11.4533L29.3332 13.56V10.6667C29.3332 9.95942 29.0522 9.28114 28.5521 8.78104C28.052 8.28095 27.3737 7.99999 26.6665 7.99999H15.9998L13.3332 5.33333H5.33317C3.85317 5.33333 2.6665 6.51999 2.6665 7.99999V24C2.6665 24.7072 2.94746 25.3855 3.44755 25.8856C3.94765 26.3857 4.62593 26.6667 5.33317 26.6667H14.6665V24Z" fill="#4394EB"/>
<path fill-rule="evenodd" clip-rule="evenodd" d="M30.6665 18.6667V28C30.6665 29.48 29.4798 30.6667 27.9998 30.6667H19.9998C19.2926 30.6667 18.6143 30.3857 18.1142 29.8856C17.6141 29.3855 17.3332 28.7072 17.3332 28V16C17.3332 14.5333 18.5332 13.3333 19.9998 13.3333H25.3332L30.6665 18.6667ZM23.9998 20H27.9998V28H19.9998V16H23.9998V20Z" fill="#2A76C7"/>
</svg>
