<svg width="20" height="20" viewBox="0 0 20 20" fill="none" xmlns="http://www.w3.org/2000/svg">
<path id="Vector" d="M4.20043 0C3.10432 0 2.22546 0.878862 2.22546 1.97497V9.87486C2.22546 10.971 3.10432 11.8498 4.20043 11.8498H16.0503C17.1464 11.8498 18.0252 10.971 18.0252 9.87486V1.97497C18.0252 0.878862 17.1464 0 16.0503 0H4.20043ZM4.20043 1.97497H16.0503V9.87486H4.20043V1.97497ZM2.22546 12.8373C1.12935 12.8373 0.250488 13.7162 0.250488 14.8123V17.7747C0.250488 18.8708 1.12935 19.7497 2.22546 19.7497H18.0252C19.1213 19.7497 20.0002 18.8708 20.0002 17.7747V14.8123C20.0002 13.7162 19.1213 12.8373 18.0252 12.8373H2.22546ZM6.1754 14.8123H18.0252V17.7747H6.1754V14.8123ZM7.16289 15.5529V17.0341H11.1128V15.5529H7.16289ZM13.0878 15.5529V17.0341H17.0377V15.5529H13.0878Z" fill="white"/>
</svg>
