<svg width="18" height="19" viewBox="0 0 18 19" fill="none" xmlns="http://www.w3.org/2000/svg">
<g clip-path="url(#clip0_101_1676)">
<path fill-rule="evenodd" clip-rule="evenodd" d="M10 13.5V15.5H8V13.5H10ZM6.17157 4.67157C6.92172 3.92143 7.93913 3.5 9 3.5C10.0609 3.5 11.0783 3.92143 11.8284 4.67157C12.5786 5.42172 13 6.43913 13 7.5C13 8.78292 12.21 9.47332 11.4408 10.1455C10.711 10.7833 10 11.4046 10 12.5H8C8 10.6787 8.94212 9.95659 9.77044 9.32168C10.4202 8.82361 11 8.37922 11 7.5C11 6.96957 10.7893 6.46086 10.4142 6.08579C10.0391 5.71071 9.53043 5.5 9 5.5C8.46957 5.5 7.96086 5.71071 7.58579 6.08579C7.21071 6.46086 7 6.96957 7 7.5H5C5 6.43913 5.42143 5.42172 6.17157 4.67157Z" fill="#787878"/>
</g>
<defs>
<clipPath id="clip0_101_1676">
<rect y="0.5" width="18" height="18" rx="9" fill="white"/>
</clipPath>
</defs>
</svg>
