<svg width="32" height="32" viewBox="0 0 32 32" fill="none" xmlns="http://www.w3.org/2000/svg">
<path d="M7.99984 16H18.6665V18.6667H7.99984V16Z" fill="#3989DE"/>
<path d="M7.99984 21.3333H14.6665V24H7.99984V21.3333Z" fill="#4488D0"/>
<path d="M26.6665 9.33333V17.3333H29.3332V9.33333H26.6665Z" fill="#2A76C7"/>
<path fill-rule="evenodd" clip-rule="evenodd" d="M5.33317 2.66666C3.85317 2.66666 2.6665 3.85333 2.6665 5.33333V26.6667C2.6665 28.1467 3.85317 29.3333 5.33317 29.3333H21.3332C22.8132 29.3333 23.9998 28.1467 23.9998 26.6667V10.6667L15.9998 2.66666H5.33317ZM5.33317 5.33333H14.6665V12H21.3332V26.6667H5.33317V5.33333Z" fill="#4394EB"/>
<path d="M26.6665 22.6667H29.3332V20H26.6665V22.6667Z" fill="#4577AC"/>
</svg>
