<svg width="32" height="32" viewBox="0 0 32 32" fill="none" xmlns="http://www.w3.org/2000/svg">
<path d="M8.00008 16H18.6667V18.6667H8.00008V16Z" fill="#8C8C8C"/>
<path d="M8.00008 21.3333H14.6667V24H8.00008V21.3333Z" fill="#8A8A8A"/>
<path d="M26.6667 9.33334V17.3333H29.3334V9.33334H26.6667Z" fill="#797979"/>
<path fill-rule="evenodd" clip-rule="evenodd" d="M5.33341 2.66667C3.85341 2.66667 2.66675 3.85334 2.66675 5.33334V26.6667C2.66675 28.1467 3.85341 29.3333 5.33341 29.3333H21.3334C22.8134 29.3333 24.0001 28.1467 24.0001 26.6667V10.6667L16.0001 2.66667H5.33341ZM5.33341 5.33334H14.6667V12H21.3334V26.6667H5.33341V5.33334Z" fill="#979797"/>
<path d="M26.6667 22.6667H29.3334V20H26.6667V22.6667Z" fill="#787878"/>
</svg>
