<svg width="32" height="32" viewBox="0 0 32 32" fill="none" xmlns="http://www.w3.org/2000/svg">
<path d="M18.6667 22.6667V20H17.3333V14.6667H13.3333V17.3333H14.6667V20H13.3333V22.6667H18.6667Z" fill="#8A8A8A"/>
<path fill-rule="evenodd" clip-rule="evenodd" d="M6.66667 4H25.3333C26.0406 4 26.7189 4.28095 27.219 4.78105C27.719 5.28115 28 5.95942 28 6.66667V25.3333C28 26.04 27.72 26.72 27.2133 27.2133C26.72 27.72 26.04 28 25.3333 28H6.66667C5.96 28 5.28 27.72 4.78667 27.2133C4.28 26.72 4 26.04 4 25.3333V6.66667C4 5.18667 5.18667 4 6.66667 4ZM25.3333 25.3333V6.66667H6.66667V25.3333H25.3333Z" fill="#979797"/>
<path d="M14.6667 12H17.3333V9.33333H14.6667V12Z" fill="#8C8C8C"/>
</svg>
